<svg width="1262" height="394" viewBox="0 0 1262 394" fill="none" xmlns="http://www.w3.org/2000/svg">
<path d="M329 218.59C329 218.59 348.286 226.263 363.286 218.59C378.286 210.917 380.429 226.263 397.571 218.59C414.714 210.917 436.143 223.194 436.143 218.59C436.143 213.986 444.714 224.728 449 218.59" stroke="#B0FFEC" stroke-width="6"/>
<circle cx="373.5" cy="245.5" r="5" stroke="#B0FFEC" stroke-width="3"/>
<circle cx="395.5" cy="239.5" r="5" stroke="#B0FFEC" stroke-width="3"/>
<circle cx="417.5" cy="233.5" r="5" stroke="#B0FFEC" stroke-width="3"/>
<circle cx="401.5" cy="258.5" r="5" stroke="#B0FFEC" stroke-width="3"/>
<circle cx="360.5" cy="233.5" r="5" stroke="#B0FFEC" stroke-width="3"/>
<circle cx="373.5" cy="264.5" r="5" stroke="#B0FFEC" stroke-width="3"/>
<path d="M5.472 291L95.04 87.96H115.2L204.768 291H180.288L157.824 239.16H52.128L29.952 291H5.472ZM104.832 115.608L60.768 219.288H149.472L105.408 115.608H104.832ZM274.613 293.592C260.405 293.592 249.653 289.464 242.357 281.208C235.253 272.76 231.701 260.568 231.701 244.632V87.96H255.029V242.904C255.029 263.448 263.189 273.72 279.509 273.72C284.309 273.72 288.629 273.144 292.469 271.992L291.893 291.576C285.941 292.92 280.181 293.592 274.613 293.592ZM546.984 293.592C533.352 293.592 521.544 290.616 511.56 284.664C501.576 278.712 493.8 270.36 488.232 259.608C482.856 248.664 480.168 235.8 480.168 221.016C480.168 206.232 482.856 193.464 488.232 182.712C493.8 171.768 501.576 163.32 511.56 157.368C521.544 151.416 533.352 148.44 546.984 148.44C560.424 148.44 572.136 151.416 582.12 157.368C592.296 163.32 600.072 171.768 605.448 182.712C611.016 193.464 613.8 206.232 613.8 221.016C613.8 235.8 611.016 248.664 605.448 259.608C600.072 270.36 592.296 278.712 582.12 284.664C572.136 290.616 560.424 293.592 546.984 293.592ZM546.984 274.872C560.04 274.872 570.504 270.264 578.376 261.048C586.248 251.64 590.184 238.296 590.184 221.016C590.184 203.544 586.248 190.2 578.376 180.984C570.504 171.768 560.04 167.16 546.984 167.16C533.736 167.16 523.176 171.768 515.304 180.984C507.624 190.2 503.784 203.544 503.784 221.016C503.784 238.296 507.624 251.64 515.304 261.048C523.176 270.264 533.736 274.872 546.984 274.872ZM719.687 293.592C708.551 293.592 698.759 291.096 690.311 286.104C682.055 281.112 675.815 274.296 671.591 265.656V291H648.839V87.96H672.167V175.224C676.199 166.968 682.439 160.44 690.887 155.64C699.335 150.84 708.935 148.44 719.687 148.44C732.167 148.44 743.015 151.416 752.231 157.368C761.639 163.128 768.839 171.48 773.831 182.424C779.015 193.176 781.607 206.04 781.607 221.016C781.607 235.8 779.015 248.664 773.831 259.608C768.839 270.36 761.639 278.712 752.231 284.664C743.015 290.616 732.167 293.592 719.687 293.592ZM714.791 274.872C727.847 274.872 738.311 270.264 746.183 261.048C754.055 251.64 757.991 238.296 757.991 221.016C757.991 203.544 754.055 190.2 746.183 180.984C738.311 171.768 727.847 167.16 714.791 167.16C701.735 167.16 691.271 171.768 683.399 180.984C675.527 190.2 671.591 203.544 671.591 221.016C671.591 238.296 675.527 251.64 683.399 261.048C691.271 270.264 701.735 274.872 714.791 274.872ZM874.921 293.592C861.289 293.592 849.481 290.616 839.497 284.664C829.513 278.712 821.737 270.36 816.169 259.608C810.793 248.664 808.105 235.8 808.105 221.016C808.105 206.232 810.793 193.464 816.169 182.712C821.737 171.768 829.513 163.32 839.497 157.368C849.481 151.416 861.289 148.44 874.921 148.44C888.361 148.44 900.073 151.416 910.057 157.368C920.233 163.32 928.009 171.768 933.385 182.712C938.953 193.464 941.737 206.232 941.737 221.016C941.737 235.8 938.953 248.664 933.385 259.608C928.009 270.36 920.233 278.712 910.057 284.664C900.073 290.616 888.361 293.592 874.921 293.592ZM874.921 274.872C887.977 274.872 898.441 270.264 906.313 261.048C914.185 251.64 918.121 238.296 918.121 221.016C918.121 203.544 914.185 190.2 906.313 180.984C898.441 171.768 887.977 167.16 874.921 167.16C861.673 167.16 851.113 171.768 843.241 180.984C835.561 190.2 831.721 203.544 831.721 221.016C831.721 238.296 835.561 251.64 843.241 261.048C851.113 270.264 861.673 274.872 874.921 274.872ZM1034.95 293.592C1021.32 293.592 1009.51 290.616 999.529 284.664C989.545 278.712 981.769 270.36 976.201 259.608C970.825 248.664 968.137 235.8 968.137 221.016C968.137 206.232 970.825 193.464 976.201 182.712C981.769 171.768 989.545 163.32 999.529 157.368C1009.51 151.416 1021.32 148.44 1034.95 148.44C1048.39 148.44 1060.1 151.416 1070.09 157.368C1080.26 163.32 1088.04 171.768 1093.42 182.712C1098.98 193.464 1101.77 206.232 1101.77 221.016C1101.77 235.8 1098.98 248.664 1093.42 259.608C1088.04 270.36 1080.26 278.712 1070.09 284.664C1060.1 290.616 1048.39 293.592 1034.95 293.592ZM1034.95 274.872C1048.01 274.872 1058.47 270.264 1066.34 261.048C1074.22 251.64 1078.15 238.296 1078.15 221.016C1078.15 203.544 1074.22 190.2 1066.34 180.984C1058.47 171.768 1048.01 167.16 1034.95 167.16C1021.7 167.16 1011.14 171.768 1003.27 180.984C995.593 190.2 991.753 203.544 991.753 221.016C991.753 238.296 995.593 251.64 1003.27 261.048C1011.14 270.264 1021.7 274.872 1034.95 274.872ZM1136.81 291V87.96H1160.14V213.24H1160.71L1225.51 151.032H1255.18L1184.9 218.424L1261.22 291H1231.56L1160.71 225.336H1160.14V291H1136.81Z" fill="white"/>
<path d="M437.109 267.152C428.1 277.889 418.045 285.242 406.944 289.212C395.697 293.058 384.092 293.596 372.129 290.827C360.143 287.787 348.487 281.515 337.162 272.012C320.101 257.696 310.604 241.832 308.672 224.421C306.592 206.886 312.341 190.029 325.916 173.85C331.47 167.232 338.139 161.674 345.922 157.177C353.706 152.68 361.52 150.088 369.364 149.402L377.197 166.502C369.5 167.312 362.535 169.488 356.304 173.032C350.196 176.428 345.229 180.406 341.403 184.965C332.023 196.143 328.333 207.71 330.333 219.664C332.186 231.495 339.658 242.902 352.748 253.886C365.544 264.623 378.222 270.124 390.783 270.387C403.197 270.528 414.094 265.009 423.474 253.831C427.3 249.271 430.355 243.689 432.639 237.084C435.046 230.332 435.907 223.033 435.22 215.189L453.421 219.934C454.107 227.778 452.923 236.059 449.87 244.776C446.793 253.222 442.539 260.681 437.109 267.152Z" fill="white"/>
</svg>
